<svg width="32" height="32" viewBox="0 0 32 32" fill="none" xmlns="http://www.w3.org/2000/svg">
<path d="M24 27H2C1.73478 27 1.48043 26.8946 1.29289 26.7071C1.10536 26.5196 1 26.2652 1 26V2C1 1.73478 1.10536 1.48043 1.29289 1.29289C1.48043 1.10536 1.73478 1 2 1H24C24.2652 1 24.5196 1.10536 24.7071 1.29289C24.8946 1.48043 25 1.73478 25 2V26C25 26.2652 24.8946 26.5196 24.7071 26.7071C24.5196 26.8946 24.2652 27 24 27ZM3 25H23V3H3V25Z" fill="#101820"/>
<path d="M30 31H8C7.73478 31 7.48043 30.8946 7.29289 30.7071C7.10536 30.5196 7 30.2652 7 30C7 29.7348 7.10536 29.4804 7.29289 29.2929C7.48043 29.1054 7.73478 29 8 29H29V7H28C27.7348 7 27.4804 6.89464 27.2929 6.70711C27.1054 6.51957 27 6.26522 27 6C27 5.73478 27.1054 5.48043 27.2929 5.29289C27.4804 5.10536 27.7348 5 28 5H30C30.2652 5 30.5196 5.10536 30.7071 5.29289C30.8946 5.48043 31 5.73478 31 6V30C31 30.2652 30.8946 30.5196 30.7071 30.7071C30.5196 30.8946 30.2652 31 30 31Z" fill="#101820"/>
<path d="M1.99995 21.86C1.73761 21.8589 1.48621 21.7547 1.29995 21.57C1.1137 21.3826 1.00916 21.1292 1.00916 20.865C1.00916 20.6008 1.1137 20.3474 1.29995 20.16L5.34995 16C5.79853 15.5419 6.397 15.2605 7.03597 15.2072C7.67493 15.154 8.31172 15.3324 8.82995 15.71L12.4199 18.31C12.5521 18.4037 12.7134 18.4471 12.8747 18.4324C13.036 18.4177 13.1868 18.346 13.2999 18.23L16.9999 14.51C17.5126 14.0151 18.1974 13.7385 18.9099 13.7385C19.6225 13.7385 20.3073 14.0151 20.8199 14.51L24.6999 18.44C24.8625 18.6324 24.9465 18.8792 24.935 19.1308C24.9235 19.3825 24.8175 19.6205 24.6381 19.7974C24.4587 19.9743 24.2192 20.0769 23.9674 20.0848C23.7156 20.0927 23.4701 20.0053 23.2799 19.84L19.3999 15.91C19.3355 15.8422 19.2579 15.7883 19.172 15.7514C19.086 15.7145 18.9935 15.6955 18.8999 15.6955C18.8064 15.6955 18.7139 15.7145 18.6279 15.7514C18.542 15.7883 18.4644 15.8422 18.3999 15.91L14.6899 19.66C14.2416 20.1178 13.644 20.3998 13.0055 20.4548C12.3671 20.5098 11.7301 20.3343 11.2099 19.96L7.61995 17.36C7.48969 17.263 7.32866 17.2167 7.16679 17.2296C7.00492 17.2425 6.85324 17.3137 6.73995 17.43L2.70995 21.56C2.61733 21.6545 2.50689 21.7297 2.38501 21.7811C2.26314 21.8326 2.13226 21.8594 1.99995 21.86Z" fill="#101820"/>
<path d="M13.85 12.86C13.0589 12.86 12.2855 12.6254 11.6277 12.1859C10.9699 11.7464 10.4572 11.1216 10.1545 10.3907C9.85171 9.65983 9.7725 8.85557 9.92684 8.07964C10.0812 7.30372 10.4621 6.59099 11.0216 6.03158C11.581 5.47217 12.2937 5.0912 13.0696 4.93686C13.8455 4.78252 14.6498 4.86173 15.3807 5.16448C16.1116 5.46723 16.7363 5.97993 17.1759 6.63772C17.6154 7.29552 17.85 8.06888 17.85 8.86C17.85 9.38529 17.7465 9.90543 17.5455 10.3907C17.3445 10.876 17.0498 11.317 16.6784 11.6884C16.307 12.0599 15.866 12.3545 15.3807 12.5555C14.8954 12.7565 14.3753 12.86 13.85 12.86ZM13.85 6.86C13.4544 6.86 13.0677 6.9773 12.7388 7.19706C12.4099 7.41683 12.1536 7.72918 12.0022 8.09464C11.8508 8.46009 11.8112 8.86222 11.8884 9.25018C11.9656 9.63814 12.1561 9.99451 12.4358 10.2742C12.7155 10.5539 13.0718 10.7444 13.4598 10.8216C13.8478 10.8987 14.2499 10.8591 14.6153 10.7078C14.9808 10.5564 15.2932 10.3 15.5129 9.97114C15.7327 9.64225 15.85 9.25557 15.85 8.86C15.85 8.32957 15.6393 7.82086 15.2642 7.44579C14.8891 7.07072 14.3804 6.86 13.85 6.86Z" fill="#101820"/>
</svg>
